<?xml version="1.0" encoding="UTF-8"?>
<svg id="_레이어_1" data-name="레이어_1" xmlns="http://www.w3.org/2000/svg" version="1.1" viewBox="0 0 135.89 70.46">
  <!-- Generator: Adobe Illustrator 29.6.1, SVG Export Plug-In . SVG Version: 2.1.1 Build 9)  -->
  <defs>
    <style>
      .st0 {
        fill: #231815;
      }
    </style>
  </defs>
  <polygon class="st0" points="2.35 70.4 0 68.05 34.08 33.97 67.65 68.06 65.28 70.39 34.06 38.69 2.35 70.4"/>
  <polygon class="st0" points="133.53 70.46 68.27 4.71 46.81 26.17 44.46 23.83 68.28 0 135.89 68.12 133.53 70.46"/>
  <polygon class="st0" points="103.16 70.39 67.25 34.01 49.71 51.55 47.36 49.2 67.27 29.29 105.52 68.06 103.16 70.39"/>
  <rect class="st0" x="72.03" y="33.3" width="1.99" height="33.83" transform="translate(-14.12 66.35) rotate(-45)"/>
  <rect class="st0" x="62.4" y="40.32" width="1.99" height="22.24" transform="translate(-17.8 59.89) rotate(-45)"/>
  <rect class="st0" x="78.74" y=".15" width="1.99" height="53.1" transform="translate(4.47 64.2) rotate(-45)"/>
</svg>