<?xml version="1.0" encoding="UTF-8"?>
<svg xmlns="http://www.w3.org/2000/svg" version="1.1" viewBox="0 0 142.37 37.84">
  <path class="st0" d="M16.35,24.17c0,.92-.2,1.64-1.44,1.64l-10.96.2c0,.64-.04.96-.36,1.32-.24.28-.96.4-1.48.2-.2-.08-.48-.24-.52-.64l-.08-1.24-.72-14.84-.72-1.4c-.24-.52.12-.76.6-1.08.6-.36.96-.36,1.2-.12l1,1.16,12.08-.2c.4,0,.92.04,1.12.24.16.12.28.44.28,1v13.76ZM13.87,12.09c0-.68-.04-.76-.8-.76l-8.84.16c-.84,0-.84.32-.8.92l.4,11.44,9.2-.24c.6,0,.84-.28.84-1v-10.52ZM25.87,17.93l1.8-.08c.8-.04,1.2-.08,2.4-.44,1.04-.32,1.36-.56,2.16-.08l1.44.84c.4.24.44.64.16,1.04l-.2.28c-.28.4-.76.52-1.28.4-.36-.08-1.08-.08-1.32-.08h-5.16v13.88c0,1.52-1.28,3.48-1.6,3.96-.24.32-.84.2-.84-.12V3.53c0-1.04-.56-1.6-1.32-2.2-.52-.44.08-1.6.76-1.28l1.76.8c1.2.56,1.24.88,1.24,1.84v15.24Z"/>
  <path class="st0" d="M54.15,21.93c.92.52.96,1.28.96,2.12v3.48c0,1-1.2,3.08-1.56,3.56-.2.28-.92.2-.92-.16v-6.44c0-1.44-.44-1.96-1.12-2.52l-8,.2-4.52.16c-.96.04-2.56.12-3.28-.12-.32-.08-.52-.56-.4-1.2l.28-1.36c2.12.44,6.96.56,7.92.56,6.72.04,12.24-.24,16.44-.36,1.6-.04,5.32-.32,5.88-.36,1.68-.2,2.72-.28,3.16.12l1.32,1.2c.4.36.4.64.28.88-.12.32-.4.68-.76.6l-2.52-.4c-2-.24-6-.16-8.12-.12l-5.04.16ZM46.63,37.69c-1.16,0-2.92-.16-2.92-2.32v-4.92c0-1.12-.04-1.72-.88-2.04-.6-.2-.88-.44-.88-.96v-1.12l2.48.36c1.8.28,1.76,1.28,1.76,2.72v4.92c0,.84,0,1.24.96,1.24h6.92c3.32,0,5.52-.32,6.44-.56.6-.16.92-.24,1.44,0l1.56.64c.8.32,1,.44.8,1.2-.2.8-.4.84-1.16.84h-16.52ZM53.07,2.13c5.12,0,8.04,3.2,8.04,7.28s-3,7.24-8.04,7.24-8.08-3.04-8.08-7.24,2.84-7.28,8.08-7.28ZM47.55,9.41c0,2.72,1.76,5.12,5.52,5.12s5.48-2.4,5.48-5.12-1.64-5.16-5.48-5.16-5.52,2.48-5.52,5.16Z"/>
  <path class="st0" d="M79.91,32.21l-4.52.16c-.96.04-2.56.12-3.28-.12-.32-.08-.52-.56-.4-1.2l.28-1.36c2.12.44,6.96.56,7.92.56,6.72.08,12.24-.2,16.44-.32,1.6-.04,5.32-.28,5.88-.32,1.68-.2,2.72-.28,3.16.12l1.32,1.2c.4.36.4.64.28.88-.12.32-.4.68-.76.6l-2.52-.4c-2-.24-6-.2-8.12-.16l-15.68.36ZM79.39,10.33c0-1.16-.04-1.44-.88-1.72-.6-.28-1.04-.6-1.04-1.4v-.92l3.04.2h.96c1.6,0,13.24-.32,13.8-.4,1.96-.28,2.24-.36,2.72-.04l.8.44c.88.48.84.72.6,1.2-.32.76-.68.88-1.52.88h-16.04c.04.36.04.72.04,1.08v4.16c2.4-.04,12.12-.32,12.64-.4,1.96-.28,2.2-.32,2.72-.04l.8.44c.88.48.84.72.6,1.2-.32.76-.68.88-1.52.88h-15.24v4.4c0,.84.24.96.96.96l8.24-.04c2.36-.04,4.72-.32,5.6-.48.64-.12.92-.12,1.44.08l1.24.52c.88.36,1.04.6.84,1.28s-.56.84-1.2.84h-16.68c-1.16,0-2.92-.24-2.92-2.36v-10.76Z"/>
  <path class="st0" d="M124.43,10.17c-.24,3.32-2.12,13.76-4.12,19.2-.44,1.24-2.52.96-2.12-.28.96-2.92,1.88-6.64,2.56-10.2-3.2.52-6.96.88-10.84,1-1.2.04-1.88,0-2.16-.12-.32-.12-.52-.52-.4-1.2l.16-1.08c1.88.28,3.12.28,5.36.24,2-.04,5.92-.44,8.24-.88.44-2.56.72-4.92.8-6.68-1.56.04-3.2.12-4.04.16-2.52.08-4.36.16-6.88.32-1.2.08-1.88-.04-2.16-.12-.32-.16-.52-.52-.4-1.2l.2-1.36c1.88.28,3.08.36,5.32.4,1.88.04,2.32-.04,3.92-.12,1.2-.04,3.28-.16,4.64-.28.04,0,.12-.04.2-.04.64-.04,1.24.24,1.52.4.2.12.28.4.28.56l-.08,1.28ZM134.43,18.85l1.6-.08c.8-.04,1.2-.08,2.4-.44,1.04-.32,1.36-.56,2.16-.08l1.44.84c.4.24.44.64.16,1.04l-.2.28c-.28.4-.76.52-1.28.4-.36-.08-1.08-.08-1.32-.08h-4.96v12.96c0,1.52-1.32,3.48-1.64,3.96-.24.32-.84.2-.84-.12V3.53c0-1.04-.52-1.6-1.28-2.2-.56-.44.08-1.6.76-1.28l1.72.8c1.24.56,1.28.88,1.28,1.84v16.16Z"/>
</svg>